<svg width="280" height="80" viewBox="0 0 280 80" xmlns="http://www.w3.org/2000/svg">
  <!-- Bird body -->
  <g transform="translate(40, 40)">
    <!-- Shadow/sticker effect -->
    <ellipse cx="2" cy="2" rx="28" ry="26" fill="white" stroke="black" stroke-width="2"/>

    <!-- Main body -->
    <ellipse cx="0" cy="0" rx="26" ry="24" fill="white" stroke="black" stroke-width="2.5"/>

    <!-- Belly -->
    <ellipse cx="0" cy="8" rx="18" ry="14" fill="white"/>

    <!-- Black head marking -->
    <path d="M -20,-15 Q 0,-25 20,-15 Q 18,-5 0,-3 Q -18,-5 -20,-15" fill="black"/>

    <!-- Eyes -->
    <circle cx="-8" cy="-8" r="7" fill="white"/>
    <circle cx="8" cy="-8" r="7" fill="white"/>
    <circle cx="-8" cy="-6" r="4" fill="black"/>
    <circle cx="8" cy="-6" r="4" fill="black"/>
    <circle cx="-7" cy="-7" r="1.5" fill="white"/>
    <circle cx="9" cy="-7" r="1.5" fill="white"/>

    <!-- Beak -->
    <path d="M -3,0 L 0,3 L 3,0 Z" fill="#FFA500" stroke="black" stroke-width="1"/>

    <!-- Wing -->
    <path d="M 15,-2 Q 25,0 22,10 Q 20,12 15,8" fill="black" stroke="black" stroke-width="1.5"/>

    <!-- Tail feathers -->
    <path d="M -18,10 L -20,18 L -16,16 Z" fill="black"/>
    <path d="M -14,12 L -15,20 L -12,18 Z" fill="black"/>

    <!-- Branch -->
    <rect x="-30" y="20" width="60" height="4" rx="2" fill="#8B4513" stroke="black" stroke-width="1.5"/>

    <!-- Feet -->
    <line x1="-5" y1="18" x2="-5" y2="24" stroke="black" stroke-width="2"/>
    <line x1="5" y1="18" x2="5" y2="24" stroke="black" stroke-width="2"/>
    <line x1="-8" y1="24" x2="-2" y2="24" stroke="black" stroke-width="1.5"/>
    <line x1="2" y1="24" x2="8" y2="24" stroke="black" stroke-width="1.5"/>

    <!-- Flower on branch -->
    <g transform="translate(25, 15)">
      <circle cx="0" cy="0" r="5" fill="white" stroke="black" stroke-width="1.5"/>
      <circle cx="-3" cy="-3" r="2" fill="white" stroke="black" stroke-width="1"/>
      <circle cx="3" cy="-3" r="2" fill="white" stroke="black" stroke-width="1"/>
      <circle cx="3" cy="3" r="2" fill="white" stroke="black" stroke-width="1"/>
      <circle cx="-3" cy="3" r="2" fill="white" stroke="black" stroke-width="1"/>
      <circle cx="0" cy="0" r="2" fill="#FFD700"/>
    </g>
  </g>

  <!-- Text -->
  <text x="100" y="45" font-family="Arial, sans-serif" font-size="28" font-weight="bold" fill="black">
    Kawaii Bird
  </text>
  <text x="100" y="65" font-family="Arial, sans-serif" font-size="14" fill="#666">
    小さくてかわいい鳥
  </text>
</svg>